/* XPM */
static char *qgn_browser_delete[] = {
/* columns rows colors chars-per-pixel */
"50 50 73 1",
"  c gray64",
". c #A4A4A4",
"X c gray65",
"o c #A7A7A7",
"O c gray66",
"+ c #A9A9A9",
"@ c #AAAAAA",
"# c gray67",
"$ c gray68",
"% c #AEAEAE",
"& c gray69",
"* c gray70",
"= c gray71",
"- c #B7B7B7",
"; c gray72",
": c #BBBBBB",
"> c gray75",
", c #C1C1C1",
"< c gray76",
"1 c #C6C6C6",
"2 c gray78",
"3 c gray79",
"4 c #CACACA",
"5 c #CBCBCB",
"6 c #CECECE",
"7 c gray81",
"8 c #D0D0D0",
"9 c LightGray",
"0 c gray83",
"q c #D5D5D5",
"w c gray84",
"e c #D7D7D7",
"r c #D8D8D8",
"t c gray85",
"y c #DADADA",
"u c gray86",
"i c gainsboro",
"p c #DDDDDD",
"a c gray87",
"s c #DFDFDF",
"d c gray88",
"f c #E1E1E1",
"g c #E2E2E2",
"h c gray89",
"j c #E4E4E4",
"k c gray90",
"l c #E6E6E6",
"z c #E7E7E7",
"x c gray91",
"c c #E9E9E9",
"v c #EAEAEA",
"b c gray92",
"n c #ECECEC",
"m c gray93",
"M c #EEEEEE",
"N c #EFEFEF",
"B c gray94",
"V c #F1F1F1",
"C c gray95",
"Z c #F3F3F3",
"A c #F4F4F4",
"S c gray96",
"D c #F6F6F6",
"F c gray97",
"G c #F8F8F8",
"H c #F9F9F9",
"J c gray98",
"K c #FBFBFB",
"L c gray99",
"P c #FDFDFD",
"I c #FEFEFE",
"U c gray100",
"Y c None",
/* pixels */
"YYYYYYYYYYYYYYYYYYYYYYYYYYYYYYYYYYYYYYYYYYYYYYYYYY",
"YYYYYYYYYYYYYYYYYYYYYYYYYYYYYYYYYYYYYYYYYYYYYYYYYY",
"YYYYYYYYYYYYYYYYYYYYYYYYYYYYYYYYYYYYYYYYYYYYYYYYYY",
"YYYYYYYYYYYYYYYYYYYYYYYYYYYYYYYYYYYYYYYYYYYYYYYYYY",
"YYYYYYYYYYYYYYYYYYYYYYYYYYYYYYYYYYYYYYYYYYYYYYYYYY",
"YYYYYYYYYYYYYYYYYYYYYYYYYYYYYYYYYYYYYYYYYYYYYYYYYY",
"YYYYYYYYYYYYYYYYYYYYYYYYYYYYYYYYYYYYYYYYYYYYYYYYYY",
"YYYYYYYYYYYYYYYYYYYYYYYYYYYYYYYYYYYYYYYYYYYYYYYYYY",
"YYYYYYYYYYYYYYYYYYYYYYYYYYYYYYYYYYYYYYYYYYYYYYYYYY",
"YYYYYYYYYYYYYYYYYYYYYYYYYYYYYYYYYYYYYYYYYYYYYYYYYY",
"YYYYYYYYYYYYYYYYYYYYYYYYYYYYYYYYYYYYYYYYYYYYYYYYYY",
"YYYYYYYYYYYYYYYYYYYYYYYYYYYYYYYYYYYYYYYYYYYYYYYYYY",
"YYYYYYYYYYYYYYYYYYYYUUYYYYYYYYYYYYYYYYYYYYYYYYYYYY",
"YYYYYYYYYYYYYYYYYYYYUUUUUYYYUUYYYYYYYYYYYYYYYYYYYY",
"YYYYYYYYYYYYYYYYYYUUUUUUUUUUUUYYYYYYYYYYYYYYYYYYYY",
"YYYYYYYYYYYYYYYYYUUGNnNDUUUUUUYYYYYYYYYYYYYYYYYYYY",
"YYYYYYYYYYYYYYYYYYYnaq0yhNHUUUUUYYYYYYYYYYYYYYYYYY",
"YYYYYYYYYYYYYYUUUYYYY6358edcCLUUUUYYYYYYYYYYYYYYYY",
"YYYYYYYYYYYYYNBSJPJYYYYY689eazCPUUUUUYYYYYYYYYYYYY",
"YYYYYYYYYYYYYYpfbSIUYYYYYYeqqtdcVGKKKYYYYYYYYYYYYY",
"YYYYYYYYYYYYYYYYYYYYYYYYYYYYityidhlxYYYYYYYYYYYYYY",
"YYYYYYYYYYYYYYYYYCUUUUUUUUYYYYYauyryYYYYYYYYYYYYYY",
"YYYYYYYYYYYYYYYYYVUUUUUUUUUPYYYYYiq0eYYYYYYYYYYYYY",
"YYYYYYYYYYYYYYYYYNKUUUUUULJJKPPYYYYweYYYYYYYYYYYYY",
"YYYYYYYYYYYYYYYYYnCDDZNnbvbMAKUUKBYYYYYYYYYYYYYYYY",
"YYYYYYYYYYYYYYYYYzcvzhspadYYYCKILSvYYYYYYYYYYYYYYY",
"YYYYYYYYYYYYYYYYYhhgayrYsjYYYnCDDCnYYYYYYYYYYYYYYY",
"YYYYYYYYYYYYYYYYYhgdpyYYzMYYYYmNNnvYYYYYYYYYYYYYYY",
"YYYYYYYYYYYYYYYYYhhhfYYzNSYGYYNmncxYYYYYYYYYYYYYYY",
"YYYYYYYYYYYYYYYYYkzccYYbBDJKKYABnxlYYYYYYYYYYYYYYY",
"YYYYYYYYYYYYYYYYYlbNBYYnMCGLIYKDBvzYYYYYYYYYYYYYYY",
"YYYYYYYYYYYYYYYYYxMSGYYCBCGIYYUPSnzYYYYYYYYYYYYYYY",
"YYYYYYYYYYYYYYYYYzNFIUYYYKUYYUUUSnlYYYYYYYYYYYYYYY",
"YYYYYYYYYYYYYYYYYhcCKUUYYUUYYUUKNlgYYYYYYYYYYYYYYY",
"YYYYYYYYYYYYYYYYYtpkNFYYYIIIPJZvfyyYYYYYYYYYYYYYYY",
"YYYYYYYYYYYYYYYYY547edlvbczjfpe8547YYYYYYYYYYYYYYY",
"YYYYYYYYYYYYYYYYY>;-:,25531<>:-==:1YYYYYYYYYYYYYYY",
"YYYYYYYYYYYYYYYYYY%oo@$&&%#OX. .+*YYYYYYYYYYYYYYYY",
"YYYYYYYYYYYYYYYYYYYYYYYYYYYYYYYYYYYYYYYYYYYYYYYYYY",
"YYYYYYYYYYYYYYYYYYYYYYYYYYYYYYYYYYYYYYYYYYYYYYYYYY",
"YYYYYYYYYYYYYYYYYYYYYYYYYYYYYYYYYYYYYYYYYYYYYYYYYY",
"YYYYYYYYYYYYYYYYYYYYYYYYYYYYYYYYYYYYYYYYYYYYYYYYYY",
"YYYYYYYYYYYYYYYYYYYYYYYYYYYYYYYYYYYYYYYYYYYYYYYYYY",
"YYYYYYYYYYYYYYYYYYYYYYYYYYYYYYYYYYYYYYYYYYYYYYYYYY",
"YYYYYYYYYYYYYYYYYYYYYYYYYYYYYYYYYYYYYYYYYYYYYYYYYY",
"YYYYYYYYYYYYYYYYYYYYYYYYYYYYYYYYYYYYYYYYYYYYYYYYYY",
"YYYYYYYYYYYYYYYYYYYYYYYYYYYYYYYYYYYYYYYYYYYYYYYYYY",
"YYYYYYYYYYYYYYYYYYYYYYYYYYYYYYYYYYYYYYYYYYYYYYYYYY",
"YYYYYYYYYYYYYYYYYYYYYYYYYYYYYYYYYYYYYYYYYYYYYYYYYY",
"YYYYYYYYYYYYYYYYYYYYYYYYYYYYYYYYYYYYYYYYYYYYYYYYYY"
};
